<svg width="57" height="57" viewBox="0 0 57 57" fill="none" xmlns="http://www.w3.org/2000/svg">
<rect x="1" y="1" width="55" height="55" rx="9.16667" fill="white" stroke="#EBEFF6" stroke-width="0.572917"/>
<path fill-rule="evenodd" clip-rule="evenodd" d="M28.451 13.6041C20.028 13.6041 13.2188 20.4634 13.2188 28.9494C13.2188 35.7326 17.5816 41.4745 23.6341 43.5067C24.3909 43.6595 24.668 43.1765 24.668 42.7703C24.668 42.4145 24.6431 41.1951 24.6431 39.9246C20.4059 40.8394 19.5235 38.0953 19.5235 38.0953C18.8425 36.3169 17.8336 35.8598 17.8336 35.8598C16.4467 34.9198 17.9346 34.9198 17.9346 34.9198C19.473 35.0214 20.2802 36.4949 20.2802 36.4949C21.6418 38.8321 23.8359 38.1717 24.7186 37.7651C24.8445 36.7743 25.2483 36.0884 25.677 35.7073C22.2975 35.3516 18.7418 34.0306 18.7418 28.1362C18.7418 26.4594 19.3467 25.0876 20.3051 24.0206C20.1539 23.6396 19.6242 22.0642 20.4567 19.9555C20.4567 19.9555 21.7428 19.549 24.6428 21.5307C25.8844 21.1948 27.1648 21.0239 28.451 21.0225C29.7371 21.0225 31.0482 21.2005 32.2589 21.5307C35.1592 19.549 36.4453 19.9555 36.4453 19.9555C37.2778 22.0642 36.7478 23.6396 36.5966 24.0206C37.5803 25.0876 38.1602 26.4594 38.1602 28.1362C38.1602 34.0306 34.6045 35.326 31.1998 35.7073C31.7547 36.19 32.2337 37.1045 32.2337 38.5527C32.2337 40.6105 32.2087 42.2621 32.2087 42.77C32.2087 43.1765 32.4862 43.6595 33.2426 43.507C39.2951 41.4742 43.658 35.7326 43.658 28.9494C43.683 20.4634 36.8488 13.6041 28.451 13.6041Z" fill="#24292F"/>
</svg>
