<svg width="57" height="57" viewBox="0 0 57 57" fill="none" xmlns="http://www.w3.org/2000/svg">
<rect x="1" y="1" width="55" height="55" rx="9.16667" fill="white" stroke="#EBEFF6" stroke-width="0.572917"/>
<path d="M46.6345 39.6399C46.0876 39.6452 45.5649 39.8669 45.1809 40.2564C44.797 40.646 44.5829 41.1718 44.5855 41.7188C44.5881 42.2658 44.8073 42.7895 45.195 43.1753C45.5827 43.5612 46.1074 43.7778 46.6544 43.7778C47.2014 43.7778 47.7262 43.5612 48.1139 43.1753C48.5016 42.7895 48.7207 42.2658 48.7234 41.7188C48.726 41.1718 48.5119 40.646 48.1279 40.2564C47.7439 39.8669 47.2213 39.6452 46.6743 39.6399H46.6345ZM46.6345 43.5409C46.2758 43.5469 45.9233 43.4463 45.6217 43.252C45.32 43.0576 45.0828 42.7782 44.94 42.449C44.7972 42.1199 44.7552 41.7557 44.8193 41.4027C44.8835 41.0497 45.0508 40.7236 45.3003 40.4657C45.5498 40.2077 45.8701 40.0296 46.2208 39.9537C46.5715 39.8779 46.9369 39.9077 47.2706 40.0395C47.6043 40.1713 47.8915 40.3991 48.0958 40.6941C48.3001 40.989 48.4123 41.338 48.4183 41.6967V41.7272C48.4283 42.1978 48.251 42.6532 47.9254 42.9931C47.5998 43.3331 47.1525 43.5298 46.6818 43.54H46.635M38.6926 39.0747H34.1968V32.0342C34.1968 30.3553 34.1669 28.1941 31.8586 28.1941C29.5171 28.1941 29.1588 30.0233 29.1588 31.912V39.0742H24.6631V24.5961H28.979V26.5747H29.0394C29.4713 25.8362 30.0955 25.2287 30.8453 24.8169C31.5952 24.405 32.4428 24.2043 33.2977 24.236C37.8543 24.236 38.6944 27.2332 38.6944 31.1323L38.6926 39.0747ZM19.5904 22.6171C19.0744 22.6172 18.57 22.4642 18.1409 22.1777C17.7118 21.8911 17.3774 21.4837 17.1798 21.007C16.9823 20.5303 16.9305 20.0057 17.0311 19.4996C17.1317 18.9935 17.3801 18.5286 17.7449 18.1637C18.1097 17.7988 18.5745 17.5502 19.0805 17.4495C19.5866 17.3487 20.1112 17.4003 20.5879 17.5976C21.0647 17.795 21.4722 18.1293 21.759 18.5583C22.0457 18.9873 22.1988 19.4917 22.1989 20.0077C22.199 20.3503 22.1315 20.6896 22.0005 21.0061C21.8694 21.3227 21.6773 21.6103 21.4351 21.8526C21.1929 22.0949 20.9053 22.2871 20.5888 22.4183C20.2723 22.5495 19.9331 22.617 19.5904 22.6171ZM21.8383 39.0747H17.3379V24.5961H21.8383V39.0747ZM40.9339 13.2243H15.0788C14.492 13.2177 13.9265 13.4443 13.5067 13.8544C13.0869 14.2645 12.847 14.8244 12.8398 15.4113V41.3736C12.8468 41.9607 13.0865 42.5211 13.5063 42.9316C13.9261 43.3421 14.4917 43.5692 15.0788 43.5629H40.9339C41.5222 43.5703 42.0893 43.3439 42.5108 42.9334C42.9323 42.5229 43.1736 41.9619 43.1817 41.3736V15.4094C43.1733 14.8214 42.9319 14.2608 42.5104 13.8507C42.0889 13.4406 41.5219 13.2147 40.9339 13.2224M46.9628 41.84C47.0398 41.8408 47.1161 41.8257 47.187 41.7958C47.258 41.7658 47.322 41.7216 47.3751 41.6659C47.4283 41.6102 47.4694 41.5441 47.4959 41.4719C47.5225 41.3996 47.5339 41.3226 47.5295 41.2458C47.5295 40.8243 47.2752 40.6229 46.7535 40.6229H45.9105V42.8296H46.2276V41.8677H46.6172L46.6261 41.8794L47.2307 42.8296H47.5697L46.9193 41.8461L46.9628 41.84ZM46.5961 41.619H46.2285V40.873H46.6945C46.9352 40.873 47.2096 40.9123 47.2096 41.2275C47.2096 41.59 46.9319 41.619 46.5943 41.619" fill="#2867B2"/>
</svg>
