<svg width="57" height="57" viewBox="0 0 57 57" fill="none" xmlns="http://www.w3.org/2000/svg">
<rect x="1" y="1" width="55" height="55" rx="9.16667" fill="white" stroke="#EBEFF6" stroke-width="0.572917"/>
<path d="M15.306 39.9641H20.1671V28.1586L13.2227 22.9503V37.8808C13.2227 39.0336 14.1567 39.9641 15.306 39.9641Z" fill="#4285F4"/>
<path d="M36.8338 39.9641H41.6949C42.8477 39.9641 43.7782 39.0301 43.7782 37.8808V22.9503L36.8338 28.1586" fill="#34A853"/>
<path d="M36.8338 19.1309V28.1586L43.7782 22.9503V20.1726C43.7782 17.5962 40.8373 16.1274 38.7782 17.6726" fill="#FBBC05"/>
<path d="M20.1671 28.1586L20.1669 19.1308L28.5002 25.3808L36.8338 19.1309V28.1586L28.5002 34.4086" fill="#EA4335"/>
<path d="M13.2227 20.1726V22.9503L20.1671 28.1586L20.1669 19.1308L18.2226 17.6726C16.1601 16.1274 13.2227 17.5962 13.2227 20.1726Z" fill="#C5221F"/>
</svg>
